<svg xmlns="http://www.w3.org/2000/svg" xmlns:xlink="http://www.w3.org/1999/xlink" width="330" height="44" viewBox="0 0 330 44"><defs><linearGradient id="a" x1="0.908" y1="1.032" x2="-0.383" y2="0.36" gradientUnits="objectBoundingBox"><stop offset="0" stop-color="#00a0ff"/><stop offset="0.007" stop-color="#00a1ff"/><stop offset="0.26" stop-color="#00beff"/><stop offset="0.512" stop-color="#00d2ff"/><stop offset="0.76" stop-color="#00dfff"/><stop offset="1" stop-color="#00e3ff"/></linearGradient><linearGradient id="b" x1="1.077" y1="0.729" x2="-1.307" y2="0.729" gradientUnits="objectBoundingBox"><stop offset="0" stop-color="#ffe000"/><stop offset="0.409" stop-color="#ffbd00"/><stop offset="0.775" stop-color="orange"/><stop offset="1" stop-color="#ff9c00"/></linearGradient><linearGradient id="c" x1="0.864" y1="-0.023" x2="-0.499" y2="-1.789" gradientUnits="objectBoundingBox"><stop offset="0" stop-color="#ff3a44"/><stop offset="1" stop-color="#c31162"/></linearGradient><linearGradient id="d" x1="-0.186" y1="2.701" x2="0.423" y2="1.909" gradientUnits="objectBoundingBox"><stop offset="0" stop-color="#32a071"/><stop offset="0.069" stop-color="#2da771"/><stop offset="0.476" stop-color="#15cf74"/><stop offset="0.801" stop-color="#06e775"/><stop offset="1" stop-color="#00f076"/></linearGradient><linearGradient id="e" x1="-1.559" y1="3.462" x2="-1.559" y2="3.387" gradientUnits="objectBoundingBox"><stop offset="0" stop-color="#1a1a1a" stop-opacity="0.102"/><stop offset="0.123" stop-color="#212121" stop-opacity="0.153"/><stop offset="0.308" stop-color="#353535" stop-opacity="0.227"/><stop offset="0.532" stop-color="#575757" stop-opacity="0.318"/><stop offset="0.783" stop-color="#858585" stop-opacity="0.42"/><stop offset="1" stop-color="#b3b3b3" stop-opacity="0.51"/></linearGradient></defs><g transform="translate(-49 -4844)"><g transform="translate(49 4844)"><path d="M144.444,44H5.556A5.474,5.474,0,0,1,0,38.5V5.5A5.474,5.474,0,0,1,5.556,0H144.444A5.474,5.474,0,0,1,150,5.5v33A5.474,5.474,0,0,1,144.444,44Z"/><path d="M144.444.88a4.672,4.672,0,0,1,4.667,4.62v33a4.672,4.672,0,0,1-4.667,4.62H5.556A4.672,4.672,0,0,1,.889,38.5V5.5A4.672,4.672,0,0,1,5.556.88Zm0-.88H5.556A5.544,5.544,0,0,0,0,5.5v33A5.474,5.474,0,0,0,5.556,44H144.444A5.474,5.474,0,0,0,150,38.5V5.5A5.544,5.544,0,0,0,144.444,0Z" fill="#a6a6a6"/><path d="M48.1,10.584a3.041,3.041,0,0,1-.781,2.233A3.461,3.461,0,0,1,41.4,10.361,3.431,3.431,0,0,1,44.861,6.9a2.973,2.973,0,0,1,1.34.335,2.431,2.431,0,0,1,1,.781l-.558.558a2.082,2.082,0,0,0-1.786-.781,2.221,2.221,0,0,0-1.786.781,2.3,2.3,0,0,0-.781,1.9,2.3,2.3,0,0,0,.781,1.9,2.875,2.875,0,0,0,1.786.781,2.449,2.449,0,0,0,1.9-.781,1.849,1.849,0,0,0,.558-1.34H44.861v-.893H48.1Zm5.135-2.791H50.22V9.914h2.791V10.7H50.22v2.121h3.014v.893H49.326v-6.7h3.907Zm3.684,5.917h-.893V7.793h-1.9V7.012h4.689v.781h-1.9Zm5.135,0v-6.7h.893v6.7Zm4.689,0h-.893V7.793h-1.9V7.012h4.577v.781h-1.9V13.71Zm10.606-.893a3.461,3.461,0,0,1-5.917-2.456,3.461,3.461,0,1,1,6.922,0A3.283,3.283,0,0,1,77.348,12.817Zm-4.242-.558a2.635,2.635,0,0,0,1.786.781,2.221,2.221,0,0,0,1.786-.781,2.693,2.693,0,0,0,.781-1.9,2.3,2.3,0,0,0-.781-1.9,2.635,2.635,0,0,0-1.786-.781,2.221,2.221,0,0,0-1.786.781,2.693,2.693,0,0,0-.781,1.9A2.3,2.3,0,0,0,73.106,12.259Zm6.475,1.451v-6.7h1l3.238,5.247V7.012h.893v6.7h-.893L80.363,8.24v5.47Z" transform="translate(4.512 0.669)" fill="#fff" stroke="#fff" stroke-miterlimit="10" stroke-width="0.2"/><path d="M71.243,22.347a4.7,4.7,0,0,0-4.8,4.8,4.765,4.765,0,0,0,4.8,4.8,4.7,4.7,0,0,0,4.8-4.8A4.632,4.632,0,0,0,71.243,22.347Zm0,7.592a2.912,2.912,0,0,1,0-5.805,2.7,2.7,0,0,1,2.679,2.9A2.771,2.771,0,0,1,71.243,29.939ZM60.86,22.347a4.7,4.7,0,0,0-4.8,4.8,4.765,4.765,0,0,0,4.8,4.8,4.7,4.7,0,0,0,4.8-4.8A4.632,4.632,0,0,0,60.86,22.347Zm0,7.592a2.912,2.912,0,0,1,0-5.805,2.7,2.7,0,0,1,2.679,2.9A2.771,2.771,0,0,1,60.86,29.939ZM48.468,23.8v2.01h4.8a4.221,4.221,0,0,1-1.116,2.568,4.941,4.941,0,0,1-3.684,1.451,5.2,5.2,0,0,1-5.247-5.359,5.266,5.266,0,0,1,5.247-5.359,5.536,5.536,0,0,1,3.684,1.451L53.6,19.11A7.154,7.154,0,0,0,48.58,17.1a7.531,7.531,0,0,0-7.48,7.368,7.531,7.531,0,0,0,7.48,7.368,6.425,6.425,0,0,0,5.135-2.121A6.721,6.721,0,0,0,55.5,25.026,4.186,4.186,0,0,0,55.39,23.8Zm50.685,1.563a4.338,4.338,0,0,0-4.019-3.014,4.5,4.5,0,0,0-4.466,4.8,4.672,4.672,0,0,0,4.689,4.8,4.58,4.58,0,0,0,3.907-2.121L97.7,28.711a2.721,2.721,0,0,1-2.344,1.34A2.422,2.422,0,0,1,93.013,28.6l6.364-2.679Zm-6.475,1.563a2.712,2.712,0,0,1,2.456-2.791,1.975,1.975,0,0,1,1.786,1ZM87.431,31.5h2.121V17.547H87.431Zm-3.349-8.15a3.676,3.676,0,0,0-2.568-1.116,4.8,4.8,0,0,0-4.577,4.8,4.623,4.623,0,0,0,4.577,4.689,3.206,3.206,0,0,0,2.456-1.116h.112v.67a2.538,2.538,0,0,1-4.912,1.116l-1.786.781a4.606,4.606,0,0,0,4.242,2.791c2.456,0,4.466-1.451,4.466-4.912V22.57h-2.01Zm-2.456,6.587a2.912,2.912,0,0,1,0-5.805,2.686,2.686,0,0,1,2.568,2.9A2.686,2.686,0,0,1,81.626,29.939Zm27.24-12.392h-5.024V31.5h2.121V26.255h2.9a4.359,4.359,0,1,0,0-8.708Zm.112,6.7h-3.014v-4.8h3.014a2.452,2.452,0,0,1,2.456,2.344,2.555,2.555,0,0,1-2.456,2.456Zm12.839-2.01a3.752,3.752,0,0,0-3.684,2.121l1.9.781a1.972,1.972,0,0,1,1.9-1,2.1,2.1,0,0,1,2.233,1.786v.112a4.428,4.428,0,0,0-2.121-.558c-2.01,0-4.019,1.116-4.019,3.126a3.271,3.271,0,0,0,3.461,3.126,3.142,3.142,0,0,0,2.679-1.34h.112V31.5h2.01V26.143a4.225,4.225,0,0,0-4.466-3.907Zm-.223,7.7c-.67,0-1.675-.335-1.675-1.228,0-1.116,1.228-1.451,2.233-1.451a4.317,4.317,0,0,1,1.9.447A2.6,2.6,0,0,1,121.593,29.939Zm11.722-7.368L130.971,28.6h-.112L128.4,22.57H126.17l3.684,8.485-2.121,4.689h2.121l5.694-13.174ZM114.56,31.5h2.121V17.547H114.56Z" transform="translate(4.069 1.334)" fill="#fff"/><path d="M10.447,7.5A2.1,2.1,0,0,0,10,9.026V33.119a2.127,2.127,0,0,0,.558,1.526l.112.109L24.513,21.236v-.218Z" transform="translate(1.164 0.873)" fill="url(#a)"/><path d="M27.477,25.289,22.9,20.712v-.335L27.477,15.8l.112.112,5.47,3.126c1.563.893,1.563,2.344,0,3.238Z" transform="translate(2.535 1.51)" fill="url(#b)"/><path d="M29.044,24.689,24.355,20,10.4,33.955c.558.558,1.34.558,2.344.112Z" transform="translate(1.211 1.844)" fill="url(#c)"/><path d="M29.044,16.8l-16.3-9.266A1.81,1.81,0,0,0,10.4,7.65L24.355,21.493Z" transform="translate(1.211 0.662)" fill="url(#d)"/><path d="M28.932,24.1,12.744,33.255a1.826,1.826,0,0,1-2.233,0l-.112.112.112.112a1.826,1.826,0,0,0,2.233,0Z" transform="translate(1.211 2.299)" opacity="0.2"/><path d="M10.447,33.732A2.183,2.183,0,0,1,10,32.169v.112a2.209,2.209,0,0,0,.558,1.563v-.112Zm24.114-12.28-5.582,3.126.112.112,5.47-3.126A1.856,1.856,0,0,0,35.677,20C35.677,20.558,35.231,21,34.561,21.451Z" transform="translate(1.164 1.853)" opacity="0.12"/><path d="M12.791,7.653l21.77,12.392c.67.447,1.116.893,1.116,1.451a1.856,1.856,0,0,0-1.116-1.563L12.791,7.541C11.228,6.648,10,7.318,10,9.1v.112C10,7.541,11.228,6.76,12.791,7.653Z" transform="translate(1.164 0.659)" fill="#fff" opacity="0.25"/></g><g transform="translate(229 4844)"><path d="M158.717,48.506a4.236,4.236,0,0,1-4.263,4.214H14.949a4.242,4.242,0,0,1-4.268-4.214V14.9a4.247,4.247,0,0,1,4.268-4.22h139.5a4.241,4.241,0,0,1,4.263,4.22Z" transform="translate(-9.702 -9.701)" fill="#fff"/><path d="M144.743,44H5.257A5.232,5.232,0,0,1,0,38.805V5.2A5.235,5.235,0,0,1,5.257,0H144.742A5.237,5.237,0,0,1,150,5.2V38.805A5.231,5.231,0,0,1,144.743,44Z" fill="#a6a6a6"/><path d="M158.717,48.506a4.236,4.236,0,0,1-4.263,4.214H14.949a4.242,4.242,0,0,1-4.268-4.214V14.9a4.247,4.247,0,0,1,4.268-4.22h139.5a4.241,4.241,0,0,1,4.263,4.22Z" transform="translate(-9.702 -9.701)"/><path d="M172.579,89.532a6.378,6.378,0,0,1,3.038-5.352,6.533,6.533,0,0,0-5.145-2.782c-2.164-.228-4.264,1.3-5.366,1.3-1.125,0-2.822-1.273-4.652-1.236a6.85,6.85,0,0,0-5.766,3.517c-2.493,4.316-.634,10.66,1.755,14.149,1.195,1.71,2.591,3.617,4.419,3.55,1.788-.073,2.456-1.139,4.614-1.139,2.138,0,2.765,1.139,4.629,1.1,1.919-.03,3.127-1.716,4.28-3.441a14.108,14.108,0,0,0,1.957-3.986A6.171,6.171,0,0,1,172.579,89.532ZM169.058,79.1a6.278,6.278,0,0,0,1.437-4.5,6.4,6.4,0,0,0-4.135,2.139,5.974,5.974,0,0,0-1.474,4.333A5.282,5.282,0,0,0,169.058,79.1Z" transform="translate(-139.429 -67.763)" fill="#fff"/><path d="M829.862,0H755.916l28.963,44h44.983a5.207,5.207,0,0,0,5.2-5.2V5.2A5.209,5.209,0,0,0,829.862,0Z" transform="translate(-685.065)" fill="url(#e)"/><g transform="translate(48.225 19.805)"><path d="M521.522,230.849h-2.5l-1.369-4.3H512.9l-1.3,4.3H509.16l4.715-14.643h2.911Zm-4.28-6.106L516,220.92q-.2-.586-.738-2.758h-.044q-.218.934-.7,2.758l-1.217,3.824Zm16.381.7a5.979,5.979,0,0,1-1.464,4.257,4.291,4.291,0,0,1-3.255,1.391,3.258,3.258,0,0,1-3.015-1.5v5.54h-2.346v-11.37q0-1.692-.087-3.47h2.063l.131,1.674h.044a4.173,4.173,0,0,1,6.68-.415,5.839,5.839,0,0,1,1.248,3.891Zm-2.39.086a4.353,4.353,0,0,0-.7-2.543,2.4,2.4,0,0,0-2.042-1.042,2.439,2.439,0,0,0-1.575.575,2.669,2.669,0,0,0-.923,1.511,3.062,3.062,0,0,0-.109.714V226.5a2.825,2.825,0,0,0,.706,1.945,2.345,2.345,0,0,0,1.835.793,2.4,2.4,0,0,0,2.063-1.021A4.494,4.494,0,0,0,531.233,225.526Zm14.534-.086A5.979,5.979,0,0,1,544.3,229.7a4.293,4.293,0,0,1-3.256,1.391,3.258,3.258,0,0,1-3.015-1.5v5.54h-2.346v-11.37q0-1.692-.087-3.47h2.063l.131,1.674h.044a4.174,4.174,0,0,1,6.681-.415,5.844,5.844,0,0,1,1.248,3.891Zm-2.391.086a4.353,4.353,0,0,0-.7-2.543,2.4,2.4,0,0,0-2.04-1.042,2.449,2.449,0,0,0-1.577.575,2.669,2.669,0,0,0-.922,1.511,3.134,3.134,0,0,0-.11.714V226.5a2.835,2.835,0,0,0,.705,1.945,2.35,2.35,0,0,0,1.838.793,2.4,2.4,0,0,0,2.063-1.021A4.494,4.494,0,0,0,543.376,225.526Zm15.969,1.216a3.912,3.912,0,0,1-1.3,3.042,5.77,5.77,0,0,1-3.989,1.282,6.962,6.962,0,0,1-3.792-.912l.542-1.955a6.526,6.526,0,0,0,3.389.913,3.2,3.2,0,0,0,2.063-.6,1.952,1.952,0,0,0,.741-1.6,2.045,2.045,0,0,0-.61-1.5,5.652,5.652,0,0,0-2.02-1.129q-3.846-1.434-3.847-4.194a3.7,3.7,0,0,1,1.358-2.954,5.369,5.369,0,0,1,3.6-1.152,7.106,7.106,0,0,1,3.324.7l-.589,1.912a5.812,5.812,0,0,0-2.814-.673,2.861,2.861,0,0,0-1.941.608,1.741,1.741,0,0,0-.589,1.327,1.794,1.794,0,0,0,.674,1.434,7.6,7.6,0,0,0,2.128,1.129,7.215,7.215,0,0,1,2.78,1.78A3.71,3.71,0,0,1,559.345,226.742Zm7.776-4.691h-2.586v5.126q0,1.956,1.369,1.954a4.125,4.125,0,0,0,1.042-.109l.065,1.781a5.312,5.312,0,0,1-1.824.26,2.812,2.812,0,0,1-2.173-.848,4.16,4.16,0,0,1-.782-2.846v-5.322H560.69v-1.76h1.541v-1.933l2.3-.7v2.629h2.586Zm11.643,3.432a5.792,5.792,0,0,1-1.391,4,4.958,4.958,0,0,1-3.866,1.608,4.726,4.726,0,0,1-3.7-1.54,5.617,5.617,0,0,1-1.38-3.888,5.745,5.745,0,0,1,1.423-4.018,4.932,4.932,0,0,1,3.836-1.565,4.825,4.825,0,0,1,3.735,1.543A5.543,5.543,0,0,1,578.764,225.483Zm-2.432.054a4.727,4.727,0,0,0-.628-2.491,2.322,2.322,0,0,0-2.108-1.258,2.356,2.356,0,0,0-2.151,1.258,4.806,4.806,0,0,0-.629,2.535,4.714,4.714,0,0,0,.629,2.492,2.406,2.406,0,0,0,4.239-.021A4.746,4.746,0,0,0,576.332,225.537Zm10.06-3.183a4.074,4.074,0,0,0-.739-.065,2.214,2.214,0,0,0-1.912.935,3.522,3.522,0,0,0-.585,2.085v5.54H580.81v-7.233q0-1.824-.068-3.324h2.043l.086,2.02h.065a3.623,3.623,0,0,1,1.173-1.674,2.837,2.837,0,0,1,1.7-.566,3.754,3.754,0,0,1,.586.043Zm10.491,2.717a5.5,5.5,0,0,1-.086,1.064H589.76a3.062,3.062,0,0,0,1.021,2.392,3.491,3.491,0,0,0,2.3.737,7.784,7.784,0,0,0,2.848-.5l.368,1.627a8.8,8.8,0,0,1-3.54.652A5.132,5.132,0,0,1,588.9,229.6a5.337,5.337,0,0,1-1.4-3.877,6.049,6.049,0,0,1,1.3-3.974,4.5,4.5,0,0,1,3.692-1.693,3.934,3.934,0,0,1,3.456,1.693A5.7,5.7,0,0,1,596.884,225.071Zm-2.237-.608a3.176,3.176,0,0,0-.456-1.8,2.049,2.049,0,0,0-1.868-.979,2.224,2.224,0,0,0-1.867.956,3.5,3.5,0,0,0-.694,1.824Z" transform="translate(-509.16 -215.99)" fill="#fff"/></g><g transform="translate(49.099 7.21)"><path d="M524.765,86.206h-1.229l-.672-2.114h-2.338l-.642,2.114h-1.2l2.317-7.2h1.43Zm-2.1-3-.609-1.879c-.064-.193-.182-.64-.363-1.356h-.022c-.075.309-.182.758-.342,1.356l-.6,1.879Zm7.9-2.188-1.965,5.189h-1.121l-1.9-5.189h1.239l.887,2.744c.15.459.277.9.373,1.313h.032c.086-.373.213-.811.373-1.313l.876-2.744Zm4.183,5.189-.086-.6h-.032a1.77,1.77,0,0,1-1.516.715,1.51,1.51,0,0,1-1.591-1.527c0-1.281,1.11-1.943,3.032-1.943v-.1c0-.683-.363-1.025-1.078-1.025a2.423,2.423,0,0,0-1.356.385l-.234-.758a3.322,3.322,0,0,1,1.784-.449c1.355,0,2.04.715,2.04,2.147v1.911a7.719,7.719,0,0,0,.075,1.239Zm-.161-2.585c-1.282,0-1.922.31-1.922,1.046a.735.735,0,0,0,.79.811,1.1,1.1,0,0,0,1.132-1.056Zm3.692-3.459a.689.689,0,1,1,.726-.694A.677.677,0,0,1,538.273,80.162Zm.6,6.044h-1.153V81.017h1.153Zm3.2,0h-1.153v-7.57h1.153Zm4.9,0-.086-.6h-.032a1.769,1.769,0,0,1-1.516.715A1.51,1.51,0,0,1,543.75,84.8c0-1.281,1.11-1.943,3.032-1.943v-.1c0-.683-.363-1.025-1.078-1.025a2.423,2.423,0,0,0-1.355.385l-.235-.759a3.322,3.322,0,0,1,1.784-.449c1.355,0,2.04.715,2.04,2.147v1.911a7.99,7.99,0,0,0,.074,1.239h-1.035Zm-.161-2.585c-1.282,0-1.922.31-1.922,1.046a.735.735,0,0,0,.79.811,1.1,1.1,0,0,0,1.132-1.056Zm5.794,2.7a1.761,1.761,0,0,1-1.632-.919h-.023l-.066.8H549.9c.032-.416.043-.887.043-1.4V78.636H551.1v3.14h.022a1.78,1.78,0,0,1,1.655-.865c1.25,0,2.126,1.068,2.126,2.626C554.9,85.149,553.932,86.324,552.608,86.324Zm-.234-4.507a1.327,1.327,0,0,0-1.271,1.378V84.1a1.271,1.271,0,0,0,1.251,1.3c.864,0,1.378-.7,1.378-1.825C553.73,82.533,553.2,81.817,552.374,81.817Zm5.388,4.389H556.61v-7.57h1.152Zm6.277-2.317h-3.462a1.489,1.489,0,0,0,1.634,1.537,3.893,3.893,0,0,0,1.4-.245l.179.8a4.326,4.326,0,0,1-1.74.32,2.409,2.409,0,0,1-2.585-2.615A2.534,2.534,0,0,1,561.92,80.9a2.574,2.574,0,0,1,2.119,2.99Zm-1.057-.822c0-.8-.406-1.367-1.143-1.367a1.369,1.369,0,0,0-1.261,1.367Zm8.047,3.257a2.47,2.47,0,0,1-2.5-2.669,2.527,2.527,0,0,1,2.586-2.744,2.451,2.451,0,0,1,2.5,2.659A2.543,2.543,0,0,1,571.028,86.324Zm.044-4.571c-.833,0-1.367.779-1.367,1.868,0,1.068.545,1.847,1.356,1.847s1.354-.833,1.354-1.869C572.417,82.543,571.883,81.753,571.072,81.753Zm8.741,4.453h-1.152v-2.98c0-.918-.352-1.378-1.046-1.378a1.2,1.2,0,0,0-1.154,1.271v3.086h-1.152V82.5c0-.459-.012-.951-.043-1.484h1.014l.054.8h.032a1.862,1.862,0,0,1,1.644-.908c1.088,0,1.8.833,1.8,2.188v3.108Zm7.545-4.324h-1.269V84.4q0,.962.671.962a2.282,2.282,0,0,0,.513-.054l.032.876a2.568,2.568,0,0,1-.9.129c-.909,0-1.451-.5-1.451-1.815V81.882H584.2v-.865h.757v-.951l1.131-.342v1.292h1.269Zm6.107,4.324H592.31V83.248c0-.929-.352-1.4-1.046-1.4a1.129,1.129,0,0,0-1.152,1.228v3.128h-1.154v-7.57h1.154v3.117h.022a1.746,1.746,0,0,1,1.559-.844c1.1,0,1.771.854,1.771,2.211Zm5.892-2.317H595.9a1.488,1.488,0,0,0,1.633,1.537,3.888,3.888,0,0,0,1.4-.245l.181.8a4.332,4.332,0,0,1-1.741.32,2.409,2.409,0,0,1-2.585-2.615,2.534,2.534,0,0,1,2.455-2.787,2.18,2.18,0,0,1,2.158,2.467A2.238,2.238,0,0,1,599.357,83.889Zm-1.057-.822c0-.8-.4-1.367-1.142-1.367a1.368,1.368,0,0,0-1.261,1.367Z" transform="translate(-518.688 -78.636)" fill="#fff"/></g></g></g></svg>